<svg width="56" height="16" viewBox="0 0 56 16" fill="none" xmlns="http://www.w3.org/2000/svg">
<g clip-path="url(#clip0)">
<path d="M51.3438 7.76296H49.3933C48.1348 7.76296 47.4427 8.65185 47.4427 10.1926V15.7037H43.6674V7.76296H42.0944C40.836 7.76296 40.1438 8.65185 40.1438 10.1926V15.7037H36.3685V4.8H40.1438V6.45926C40.773 5.15556 41.591 4.8 42.8494 4.8H47.4427V6.45926C48.0719 5.15556 48.8899 4.8 50.1483 4.8H51.4067L51.3438 7.76296ZM35.4876 11.0815H27.6854C27.8742 12.3259 28.6921 12.9778 30.0135 12.9778C31.0202 12.9778 31.7124 12.563 31.964 11.9111L35.2989 12.8C34.4809 14.6963 32.4674 15.8222 30.0135 15.8222C25.9236 15.8222 24.036 12.8 24.036 10.1926C24.036 7.64444 25.6719 4.62222 29.7618 4.62222C34.1034 4.62222 35.5506 7.7037 35.5506 10.0148C35.5506 10.5481 35.5506 10.8444 35.4876 11.0815ZM31.9011 9.00741C31.8382 8.05926 31.0831 7.22963 29.8247 7.22963C28.6292 7.22963 27.9371 7.7037 27.6854 9.00741H31.9011ZM17.4921 15.7037H20.764L24.9169 4.85926H21.1416L19.1281 11.2L17.1146 4.8H13.3393L17.4921 15.7037ZM2.13933 15.7037H5.85169V7.76296H9.4382V15.7037H13.1506V4.8H5.85169V4.14815C5.85169 3.43704 6.41798 2.96296 7.23596 2.96296H9.4382V0H6.66966C3.96405 0 2.13933 1.6 2.13933 3.91111V4.8H0V7.76296H2.13933V15.7037Z" fill="#404145"/>
<path d="M53.6719 15.9999C54.9303 15.9999 56 14.9925 56 13.8073C56 12.6222 54.9303 11.6147 53.6719 11.6147C52.4135 11.6147 51.3438 12.6222 51.3438 13.8073C51.3438 14.9925 52.4135 15.9999 53.6719 15.9999Z" fill="#1DBF73"/>
</g>
<defs>
<clipPath id="clip0">
<rect width="56" height="16" fill="white"/>
</clipPath>
</defs>
</svg>
